STARTFONT 2.1
FONT -daisy-daisy-bold-r-normal--10-110-75-75-m-50-ISO8859-1
SIZE 11 75 75
FONTBOUNDINGBOX 5 10 0 -2
STARTPROPERTIES 23
FONTNAME_REGISTRY ""
WEIGHT_NAME "bold"
SLANT "r"
SETWIDTH_NAME "normal"
ADD_STYLE_NAME ""
PIXEL_SIZE 10
POINT_SIZE 110
RESOLUTION_X 75
RESOLUTION_Y 75
SPACING "m"
AVERAGE_WIDTH 50
CHARSET_REGISTRY "ISO8859"
CHARSET_ENCODING "1"
COPYRIGHT "victoria lacroix"
WEIGHT 10
X_HEIGHT 6
QUAD_WIDTH 7
_ORIGINAL_FONT_NAME "yuki, lemon"
DEFAULT_CHAR 52
FONT_DESCENT 2
FONT_ASCENT 8
_GBDFED_INFO "Edited with gbdfed 1.6."
FAMILY_NAME "daisy"
ENDPROPERTIES
CHARS 213
STARTCHAR char32
ENCODING 32
SWIDTH 436 0
DWIDTH 5 0
BBX 0 0 0 0
BITMAP
ENDCHAR
STARTCHAR char33
ENCODING 33
SWIDTH 436 0
DWIDTH 5 0
BBX 2 6 2 0
BITMAP
C0
C0
C0
C0
00
C0
ENDCHAR
STARTCHAR char34
ENCODING 34
SWIDTH 436 0
DWIDTH 5 0
BBX 5 3 0 4
BITMAP
D8
D8
48
ENDCHAR
STARTCHAR char35
ENCODING 35
SWIDTH 436 0
DWIDTH 5 0
BBX 5 5 0 0
BITMAP
58
F8
D8
F8
D0
ENDCHAR
STARTCHAR char36
ENCODING 36
SWIDTH 436 0
DWIDTH 5 0
BBX 5 7 0 0
BITMAP
20
78
E0
70
38
F0
20
ENDCHAR
STARTCHAR char37
ENCODING 37
SWIDTH 436 0
DWIDTH 5 0
BBX 5 6 0 0
BITMAP
C0
D8
30
60
D8
18
ENDCHAR
STARTCHAR char38
ENCODING 38
SWIDTH 436 0
DWIDTH 5 0
BBX 5 6 0 0
BITMAP
60
D0
60
E8
D0
68
ENDCHAR
STARTCHAR char39
ENCODING 39
SWIDTH 436 0
DWIDTH 5 0
BBX 2 3 2 4
BITMAP
C0
C0
40
ENDCHAR
STARTCHAR char40
ENCODING 40
SWIDTH 436 0
DWIDTH 5 0
BBX 4 8 1 -1
BITMAP
30
60
C0
C0
C0
C0
60
30
ENDCHAR
STARTCHAR char41
ENCODING 41
SWIDTH 436 0
DWIDTH 5 0
BBX 4 8 1 -1
BITMAP
C0
60
30
30
30
30
60
C0
ENDCHAR
STARTCHAR char42
ENCODING 42
SWIDTH 436 0
DWIDTH 5 0
BBX 4 4 1 1
BITMAP
60
F0
60
F0
ENDCHAR
STARTCHAR char43
ENCODING 43
SWIDTH 436 0
DWIDTH 5 0
BBX 5 5 0 0
BITMAP
20
20
F8
20
20
ENDCHAR
STARTCHAR char44
ENCODING 44
SWIDTH 436 0
DWIDTH 5 0
BBX 2 3 2 -1
BITMAP
C0
C0
40
ENDCHAR
STARTCHAR char45
ENCODING 45
SWIDTH 436 0
DWIDTH 5 0
BBX 5 1 0 2
BITMAP
F8
ENDCHAR
STARTCHAR char46
ENCODING 46
SWIDTH 436 0
DWIDTH 5 0
BBX 2 2 2 0
BITMAP
C0
C0
ENDCHAR
STARTCHAR char47
ENCODING 47
SWIDTH 436 0
DWIDTH 5 0
BBX 5 8 0 -1
BITMAP
18
18
30
30
60
60
C0
C0
ENDCHAR
STARTCHAR char48
ENCODING 48
SWIDTH 436 0
DWIDTH 5 0
BBX 4 6 1 0
BITMAP
60
D0
F0
D0
D0
60
ENDCHAR
STARTCHAR char49
ENCODING 49
SWIDTH 436 0
DWIDTH 5 0
BBX 4 6 1 0
BITMAP
60
E0
60
60
60
F0
ENDCHAR
STARTCHAR char50
ENCODING 50
SWIDTH 436 0
DWIDTH 5 0
BBX 4 6 1 0
BITMAP
E0
30
30
60
C0
F0
ENDCHAR
STARTCHAR char51
ENCODING 51
SWIDTH 436 0
DWIDTH 5 0
BBX 4 6 1 0
BITMAP
E0
30
60
30
30
E0
ENDCHAR
STARTCHAR char52
ENCODING 52
SWIDTH 436 0
DWIDTH 5 0
BBX 4 6 1 0
BITMAP
B0
B0
B0
70
30
30
ENDCHAR
STARTCHAR char53
ENCODING 53
SWIDTH 436 0
DWIDTH 5 0
BBX 4 6 1 0
BITMAP
F0
C0
E0
30
30
E0
ENDCHAR
STARTCHAR char54
ENCODING 54
SWIDTH 436 0
DWIDTH 5 0
BBX 4 6 1 0
BITMAP
60
C0
E0
D0
D0
60
ENDCHAR
STARTCHAR char55
ENCODING 55
SWIDTH 436 0
DWIDTH 5 0
BBX 4 6 1 0
BITMAP
F0
30
60
60
C0
C0
ENDCHAR
STARTCHAR char56
ENCODING 56
SWIDTH 436 0
DWIDTH 5 0
BBX 4 6 1 0
BITMAP
60
D0
60
D0
D0
60
ENDCHAR
STARTCHAR char57
ENCODING 57
SWIDTH 436 0
DWIDTH 5 0
BBX 4 6 1 0
BITMAP
60
B0
B0
70
30
60
ENDCHAR
STARTCHAR char58
ENCODING 58
SWIDTH 436 0
DWIDTH 5 0
BBX 2 5 2 0
BITMAP
C0
C0
00
C0
C0
ENDCHAR
STARTCHAR char59
ENCODING 59
SWIDTH 436 0
DWIDTH 5 0
BBX 2 6 2 -1
BITMAP
C0
C0
00
C0
C0
40
ENDCHAR
STARTCHAR char60
ENCODING 60
SWIDTH 436 0
DWIDTH 5 0
BBX 4 5 1 0
BITMAP
30
60
C0
60
30
ENDCHAR
STARTCHAR char61
ENCODING 61
SWIDTH 436 0
DWIDTH 5 0
BBX 5 3 0 1
BITMAP
F8
00
F8
ENDCHAR
STARTCHAR char62
ENCODING 62
SWIDTH 436 0
DWIDTH 5 0
BBX 4 5 1 0
BITMAP
C0
60
30
60
C0
ENDCHAR
STARTCHAR char63
ENCODING 63
SWIDTH 436 0
DWIDTH 5 0
BBX 4 6 1 0
BITMAP
60
B0
30
60
00
60
ENDCHAR
STARTCHAR char64
ENCODING 64
SWIDTH 436 0
DWIDTH 5 0
BBX 4 6 1 0
BITMAP
F0
D0
D0
D0
C0
F0
ENDCHAR
STARTCHAR char65
ENCODING 65
SWIDTH 436 0
DWIDTH 5 0
BBX 4 6 1 0
BITMAP
60
D0
D0
F0
D0
D0
ENDCHAR
STARTCHAR char66
ENCODING 66
SWIDTH 436 0
DWIDTH 5 0
BBX 4 6 1 0
BITMAP
E0
D0
E0
D0
D0
E0
ENDCHAR
STARTCHAR char67
ENCODING 67
SWIDTH 436 0
DWIDTH 5 0
BBX 4 6 1 0
BITMAP
70
C0
C0
C0
C0
70
ENDCHAR
STARTCHAR char68
ENCODING 68
SWIDTH 436 0
DWIDTH 5 0
BBX 4 6 1 0
BITMAP
E0
D0
D0
D0
D0
E0
ENDCHAR
STARTCHAR char69
ENCODING 69
SWIDTH 436 0
DWIDTH 5 0
BBX 4 6 1 0
BITMAP
F0
C0
E0
C0
C0
F0
ENDCHAR
STARTCHAR char70
ENCODING 70
SWIDTH 436 0
DWIDTH 5 0
BBX 4 6 1 0
BITMAP
F0
C0
E0
C0
C0
C0
ENDCHAR
STARTCHAR char71
ENCODING 71
SWIDTH 436 0
DWIDTH 5 0
BBX 4 6 1 0
BITMAP
70
C0
D0
D0
F0
50
ENDCHAR
STARTCHAR char72
ENCODING 72
SWIDTH 436 0
DWIDTH 5 0
BBX 4 6 1 0
BITMAP
D0
D0
F0
D0
D0
D0
ENDCHAR
STARTCHAR char73
ENCODING 73
SWIDTH 436 0
DWIDTH 5 0
BBX 4 6 1 0
BITMAP
F0
60
60
60
60
F0
ENDCHAR
STARTCHAR char74
ENCODING 74
SWIDTH 436 0
DWIDTH 5 0
BBX 4 6 1 0
BITMAP
70
30
30
30
B0
60
ENDCHAR
STARTCHAR char75
ENCODING 75
SWIDTH 436 0
DWIDTH 5 0
BBX 4 6 1 0
BITMAP
D0
D0
E0
D0
D0
D0
ENDCHAR
STARTCHAR char76
ENCODING 76
SWIDTH 436 0
DWIDTH 5 0
BBX 4 6 1 0
BITMAP
C0
C0
C0
C0
C0
F0
ENDCHAR
STARTCHAR char77
ENCODING 77
SWIDTH 436 0
DWIDTH 5 0
BBX 4 6 1 0
BITMAP
D0
F0
F0
D0
D0
D0
ENDCHAR
STARTCHAR char78
ENCODING 78
SWIDTH 436 0
DWIDTH 5 0
BBX 4 6 1 0
BITMAP
90
D0
F0
F0
B0
90
ENDCHAR
STARTCHAR char79
ENCODING 79
SWIDTH 436 0
DWIDTH 5 0
BBX 4 6 1 0
BITMAP
60
D0
D0
D0
D0
60
ENDCHAR
STARTCHAR char80
ENCODING 80
SWIDTH 436 0
DWIDTH 5 0
BBX 4 6 1 0
BITMAP
E0
D0
D0
E0
C0
C0
ENDCHAR
STARTCHAR char81
ENCODING 81
SWIDTH 436 0
DWIDTH 5 0
BBX 4 7 1 -1
BITMAP
60
D0
D0
D0
D0
60
30
ENDCHAR
STARTCHAR char82
ENCODING 82
SWIDTH 436 0
DWIDTH 5 0
BBX 4 6 1 0
BITMAP
E0
D0
D0
E0
D0
D0
ENDCHAR
STARTCHAR char83
ENCODING 83
SWIDTH 436 0
DWIDTH 5 0
BBX 4 6 1 0
BITMAP
70
C0
60
30
30
E0
ENDCHAR
STARTCHAR char84
ENCODING 84
SWIDTH 436 0
DWIDTH 5 0
BBX 4 6 1 0
BITMAP
F0
60
60
60
60
60
ENDCHAR
STARTCHAR char85
ENCODING 85
SWIDTH 436 0
DWIDTH 5 0
BBX 4 6 1 0
BITMAP
D0
D0
D0
D0
D0
70
ENDCHAR
STARTCHAR char86
ENCODING 86
SWIDTH 436 0
DWIDTH 5 0
BBX 4 6 1 0
BITMAP
D0
D0
D0
D0
60
60
ENDCHAR
STARTCHAR char87
ENCODING 87
SWIDTH 436 0
DWIDTH 5 0
BBX 4 6 1 0
BITMAP
D0
D0
D0
D0
F0
D0
ENDCHAR
STARTCHAR char88
ENCODING 88
SWIDTH 436 0
DWIDTH 5 0
BBX 4 6 1 0
BITMAP
D0
D0
60
D0
D0
D0
ENDCHAR
STARTCHAR char89
ENCODING 89
SWIDTH 436 0
DWIDTH 5 0
BBX 4 6 1 0
BITMAP
D0
D0
60
60
60
60
ENDCHAR
STARTCHAR char90
ENCODING 90
SWIDTH 436 0
DWIDTH 5 0
BBX 4 6 1 0
BITMAP
F0
30
60
60
C0
F0
ENDCHAR
STARTCHAR char91
ENCODING 91
SWIDTH 436 0
DWIDTH 5 0
BBX 4 8 1 -1
BITMAP
F0
C0
C0
C0
C0
C0
C0
F0
ENDCHAR
STARTCHAR char92
ENCODING 92
SWIDTH 436 0
DWIDTH 5 0
BBX 5 8 0 -1
BITMAP
C0
C0
60
60
30
30
18
18
ENDCHAR
STARTCHAR char93
ENCODING 93
SWIDTH 436 0
DWIDTH 5 0
BBX 4 8 1 -1
BITMAP
F0
30
30
30
30
30
30
F0
ENDCHAR
STARTCHAR char94
ENCODING 94
SWIDTH 436 0
DWIDTH 5 0
BBX 4 3 1 4
BITMAP
60
F0
90
ENDCHAR
STARTCHAR char95
ENCODING 95
SWIDTH 436 0
DWIDTH 5 0
BBX 5 1 0 -1
BITMAP
F8
ENDCHAR
STARTCHAR char96
ENCODING 96
SWIDTH 436 0
DWIDTH 5 0
BBX 4 3 1 4
BITMAP
C0
60
30
ENDCHAR
STARTCHAR char97
ENCODING 97
SWIDTH 436 0
DWIDTH 5 0
BBX 4 5 1 0
BITMAP
70
B0
B0
B0
50
ENDCHAR
STARTCHAR char98
ENCODING 98
SWIDTH 436 0
DWIDTH 5 0
BBX 4 7 1 0
BITMAP
C0
C0
E0
D0
D0
D0
A0
ENDCHAR
STARTCHAR char99
ENCODING 99
SWIDTH 436 0
DWIDTH 5 0
BBX 4 5 1 0
BITMAP
70
C0
C0
C0
70
ENDCHAR
STARTCHAR char100
ENCODING 100
SWIDTH 436 0
DWIDTH 5 0
BBX 4 7 1 0
BITMAP
30
30
70
B0
B0
B0
50
ENDCHAR
STARTCHAR char101
ENCODING 101
SWIDTH 436 0
DWIDTH 5 0
BBX 4 5 1 0
BITMAP
60
D0
F0
C0
70
ENDCHAR
STARTCHAR char102
ENCODING 102
SWIDTH 436 0
DWIDTH 5 0
BBX 4 8 1 -1
BITMAP
30
60
F0
60
60
60
60
C0
ENDCHAR
STARTCHAR char103
ENCODING 103
SWIDTH 436 0
DWIDTH 5 0
BBX 4 7 1 -2
BITMAP
50
B0
B0
B0
70
30
60
ENDCHAR
STARTCHAR char104
ENCODING 104
SWIDTH 436 0
DWIDTH 5 0
BBX 4 7 1 0
BITMAP
C0
C0
E0
D0
D0
D0
D0
ENDCHAR
STARTCHAR char105
ENCODING 105
SWIDTH 436 0
DWIDTH 5 0
BBX 4 7 1 0
BITMAP
60
00
E0
60
60
60
30
ENDCHAR
STARTCHAR char106
ENCODING 106
SWIDTH 436 0
DWIDTH 5 0
BBX 3 9 1 -2
BITMAP
60
00
E0
60
60
60
60
60
C0
ENDCHAR
STARTCHAR char107
ENCODING 107
SWIDTH 436 0
DWIDTH 5 0
BBX 4 7 1 0
BITMAP
C0
C0
D0
D0
E0
D0
D0
ENDCHAR
STARTCHAR char108
ENCODING 108
SWIDTH 436 0
DWIDTH 5 0
BBX 4 7 1 0
BITMAP
E0
60
60
60
60
60
30
ENDCHAR
STARTCHAR char109
ENCODING 109
SWIDTH 436 0
DWIDTH 5 0
BBX 4 5 1 0
BITMAP
D0
F0
F0
D0
D0
ENDCHAR
STARTCHAR char110
ENCODING 110
SWIDTH 436 0
DWIDTH 5 0
BBX 4 5 1 0
BITMAP
A0
D0
D0
D0
D0
ENDCHAR
STARTCHAR char111
ENCODING 111
SWIDTH 436 0
DWIDTH 5 0
BBX 4 5 1 0
BITMAP
60
D0
D0
D0
60
ENDCHAR
STARTCHAR char112
ENCODING 112
SWIDTH 436 0
DWIDTH 5 0
BBX 4 7 1 -2
BITMAP
A0
D0
D0
D0
E0
C0
C0
ENDCHAR
STARTCHAR char113
ENCODING 113
SWIDTH 436 0
DWIDTH 5 0
BBX 4 7 1 -2
BITMAP
50
B0
B0
B0
70
30
30
ENDCHAR
STARTCHAR char114
ENCODING 114
SWIDTH 436 0
DWIDTH 5 0
BBX 4 5 1 0
BITMAP
A0
D0
C0
C0
C0
ENDCHAR
STARTCHAR char115
ENCODING 115
SWIDTH 436 0
DWIDTH 5 0
BBX 4 5 1 0
BITMAP
70
C0
60
30
E0
ENDCHAR
STARTCHAR char116
ENCODING 116
SWIDTH 436 0
DWIDTH 5 0
BBX 4 7 1 0
BITMAP
60
60
F0
60
60
60
30
ENDCHAR
STARTCHAR char117
ENCODING 117
SWIDTH 436 0
DWIDTH 5 0
BBX 4 5 1 0
BITMAP
B0
B0
B0
B0
50
ENDCHAR
STARTCHAR char118
ENCODING 118
SWIDTH 436 0
DWIDTH 5 0
BBX 4 5 1 0
BITMAP
D0
D0
D0
60
60
ENDCHAR
STARTCHAR char119
ENCODING 119
SWIDTH 436 0
DWIDTH 5 0
BBX 4 5 1 0
BITMAP
D0
D0
D0
F0
D0
ENDCHAR
STARTCHAR char120
ENCODING 120
SWIDTH 436 0
DWIDTH 5 0
BBX 4 5 1 0
BITMAP
D0
D0
60
D0
D0
ENDCHAR
STARTCHAR char121
ENCODING 121
SWIDTH 436 0
DWIDTH 5 0
BBX 4 7 1 -2
BITMAP
B0
B0
B0
B0
70
30
60
ENDCHAR
STARTCHAR char122
ENCODING 122
SWIDTH 436 0
DWIDTH 5 0
BBX 4 5 1 0
BITMAP
F0
30
60
C0
F0
ENDCHAR
STARTCHAR char123
ENCODING 123
SWIDTH 436 0
DWIDTH 5 0
BBX 4 8 1 -1
BITMAP
30
60
60
C0
60
60
60
30
ENDCHAR
STARTCHAR char124
ENCODING 124
SWIDTH 436 0
DWIDTH 5 0
BBX 2 8 2 -1
BITMAP
C0
C0
C0
C0
C0
C0
C0
C0
ENDCHAR
STARTCHAR char125
ENCODING 125
SWIDTH 436 0
DWIDTH 5 0
BBX 4 8 1 -1
BITMAP
C0
60
60
30
60
60
60
C0
ENDCHAR
STARTCHAR char126
ENCODING 126
SWIDTH 436 0
DWIDTH 5 0
BBX 5 3 0 2
BITMAP
60
D8
30
ENDCHAR
STARTCHAR char161
ENCODING 161
SWIDTH 436 0
DWIDTH 5 0
BBX 2 6 2 0
BITMAP
C0
00
C0
C0
C0
C0
ENDCHAR
STARTCHAR char162
ENCODING 162
SWIDTH 436 0
DWIDTH 5 0
BBX 4 7 1 -1
BITMAP
20
70
E0
E0
E0
70
20
ENDCHAR
STARTCHAR char163
ENCODING 163
SWIDTH 436 0
DWIDTH 5 0
BBX 4 7 1 0
BITMAP
30
60
60
F0
60
60
B0
ENDCHAR
STARTCHAR char164
ENCODING 164
SWIDTH 436 0
DWIDTH 5 0
BBX 5 5 0 1
BITMAP
88
70
70
70
88
ENDCHAR
STARTCHAR char165
ENCODING 165
SWIDTH 436 0
DWIDTH 5 0
BBX 4 6 1 0
BITMAP
D0
D0
60
F0
F0
60
ENDCHAR
STARTCHAR char166
ENCODING 166
SWIDTH 436 0
DWIDTH 5 0
BBX 2 7 2 0
BITMAP
C0
C0
C0
00
C0
C0
C0
ENDCHAR
STARTCHAR char167
ENCODING 167
SWIDTH 436 0
DWIDTH 5 0
BBX 4 7 1 0
BITMAP
70
C0
E0
90
70
30
E0
ENDCHAR
STARTCHAR char168
ENCODING 168
SWIDTH 436 0
DWIDTH 5 0
BBX 3 1 1 5
BITMAP
A0
ENDCHAR
STARTCHAR char169
ENCODING 169
SWIDTH 436 0
DWIDTH 5 0
BBX 5 7 0 0
BITMAP
70
C8
D8
E8
D8
C8
70
ENDCHAR
STARTCHAR char170
ENCODING 170
SWIDTH 436 0
DWIDTH 5 0
BBX 4 4 1 3
BITMAP
70
B0
B0
50
ENDCHAR
STARTCHAR char171
ENCODING 171
SWIDTH 436 0
DWIDTH 5 0
BBX 5 5 0 0
BITMAP
38
70
E0
70
38
ENDCHAR
STARTCHAR char172
ENCODING 172
SWIDTH 436 0
DWIDTH 5 0
BBX 4 3 1 1
BITMAP
F0
30
30
ENDCHAR
STARTCHAR char173
ENCODING 173
SWIDTH 436 0
DWIDTH 5 0
BBX 5 1 0 2
BITMAP
F8
ENDCHAR
STARTCHAR char174
ENCODING 174
SWIDTH 436 0
DWIDTH 5 0
BBX 5 7 0 0
BITMAP
70
C8
F8
E8
D8
C8
70
ENDCHAR
STARTCHAR char175
ENCODING 175
SWIDTH 436 0
DWIDTH 5 0
BBX 5 1 0 6
BITMAP
F8
ENDCHAR
STARTCHAR char176
ENCODING 176
SWIDTH 436 0
DWIDTH 5 0
BBX 4 3 1 4
BITMAP
60
B0
60
ENDCHAR
STARTCHAR char177
ENCODING 177
SWIDTH 436 0
DWIDTH 5 0
BBX 5 7 0 0
BITMAP
20
20
F8
20
20
00
F8
ENDCHAR
STARTCHAR char178
ENCODING 178
SWIDTH 436 0
DWIDTH 5 0
BBX 4 4 1 4
BITMAP
E0
30
60
F0
ENDCHAR
STARTCHAR char179
ENCODING 179
SWIDTH 436 0
DWIDTH 5 0
BBX 4 4 1 4
BITMAP
E0
70
30
E0
ENDCHAR
STARTCHAR char180
ENCODING 180
SWIDTH 436 0
DWIDTH 5 0
BBX 2 3 2 5
BITMAP
40
C0
C0
ENDCHAR
STARTCHAR char181
ENCODING 181
SWIDTH 436 0
DWIDTH 5 0
BBX 4 7 1 -2
BITMAP
D0
D0
D0
D0
E0
C0
C0
ENDCHAR
STARTCHAR char182
ENCODING 182
SWIDTH 436 0
DWIDTH 5 0
BBX 5 7 0 0
BITMAP
78
D8
D8
D8
58
58
58
ENDCHAR
STARTCHAR char183
ENCODING 183
SWIDTH 436 0
DWIDTH 5 0
BBX 2 2 2 2
BITMAP
C0
C0
ENDCHAR
STARTCHAR char184
ENCODING 184
SWIDTH 436 0
DWIDTH 5 0
BBX 3 3 1 -2
BITMAP
40
60
C0
ENDCHAR
STARTCHAR char185
ENCODING 185
SWIDTH 436 0
DWIDTH 5 0
BBX 4 4 1 4
BITMAP
60
E0
60
F0
ENDCHAR
STARTCHAR char186
ENCODING 186
SWIDTH 436 0
DWIDTH 5 0
BBX 4 6 1 2
BITMAP
60
D0
D0
60
00
F0
ENDCHAR
STARTCHAR char187
ENCODING 187
SWIDTH 436 0
DWIDTH 5 0
BBX 5 5 0 0
BITMAP
E0
70
38
70
E0
ENDCHAR
STARTCHAR char188
ENCODING 188
SWIDTH 436 0
DWIDTH 5 0
BBX 4 10 1 -2
BITMAP
E0
60
F0
00
F0
00
B0
B0
70
30
ENDCHAR
STARTCHAR char189
ENCODING 189
SWIDTH 436 0
DWIDTH 5 0
BBX 4 10 1 -2
BITMAP
E0
60
F0
00
F0
00
E0
30
60
F0
ENDCHAR
STARTCHAR char190
ENCODING 190
SWIDTH 436 0
DWIDTH 5 0
BBX 4 10 1 -2
BITMAP
E0
70
E0
00
F0
00
B0
B0
70
30
ENDCHAR
STARTCHAR char63
ENCODING 191
SWIDTH 436 0
DWIDTH 5 0
BBX 4 6 1 0
BITMAP
60
00
60
C0
D0
60
ENDCHAR
STARTCHAR char192
ENCODING 192
SWIDTH 436 0
DWIDTH 5 0
BBX 4 8 1 0
BITMAP
40
20
60
D0
D0
F0
D0
D0
ENDCHAR
STARTCHAR char193
ENCODING 193
SWIDTH 436 0
DWIDTH 5 0
BBX 4 8 1 0
BITMAP
20
40
60
D0
D0
F0
D0
D0
ENDCHAR
STARTCHAR char194
ENCODING 194
SWIDTH 436 0
DWIDTH 5 0
BBX 4 8 1 0
BITMAP
F0
00
60
D0
D0
F0
D0
D0
ENDCHAR
STARTCHAR char195
ENCODING 195
SWIDTH 436 0
DWIDTH 5 0
BBX 4 8 1 0
BITMAP
50
A0
60
D0
D0
F0
D0
D0
ENDCHAR
STARTCHAR char196
ENCODING 196
SWIDTH 436 0
DWIDTH 5 0
BBX 4 8 1 0
BITMAP
90
00
60
D0
D0
F0
D0
D0
ENDCHAR
STARTCHAR char197
ENCODING 197
SWIDTH 436 0
DWIDTH 5 0
BBX 4 8 1 0
BITMAP
60
90
60
D0
D0
F0
D0
D0
ENDCHAR
STARTCHAR char198
ENCODING 198
SWIDTH 436 0
DWIDTH 5 0
BBX 5 6 0 0
BITMAP
78
B0
B8
F0
B0
B8
ENDCHAR
STARTCHAR char199
ENCODING 199
SWIDTH 436 0
DWIDTH 5 0
BBX 4 8 1 -2
BITMAP
70
C0
C0
C0
C0
70
20
40
ENDCHAR
STARTCHAR char200
ENCODING 200
SWIDTH 436 0
DWIDTH 5 0
BBX 4 8 1 0
BITMAP
40
20
F0
C0
E0
C0
C0
F0
ENDCHAR
STARTCHAR char201
ENCODING 201
SWIDTH 436 0
DWIDTH 5 0
BBX 4 8 1 0
BITMAP
20
40
F0
C0
E0
C0
C0
F0
ENDCHAR
STARTCHAR char202
ENCODING 202
SWIDTH 436 0
DWIDTH 5 0
BBX 4 8 1 0
BITMAP
F0
00
F0
C0
E0
C0
C0
F0
ENDCHAR
STARTCHAR char203
ENCODING 203
SWIDTH 436 0
DWIDTH 5 0
BBX 4 8 1 0
BITMAP
90
00
F0
C0
E0
C0
C0
F0
ENDCHAR
STARTCHAR char204
ENCODING 204
SWIDTH 436 0
DWIDTH 5 0
BBX 4 8 1 0
BITMAP
40
20
F0
60
60
60
60
F0
ENDCHAR
STARTCHAR char205
ENCODING 205
SWIDTH 436 0
DWIDTH 5 0
BBX 4 8 1 0
BITMAP
20
40
F0
60
60
60
60
F0
ENDCHAR
STARTCHAR char206
ENCODING 206
SWIDTH 436 0
DWIDTH 5 0
BBX 4 8 1 0
BITMAP
F0
00
F0
60
60
60
60
F0
ENDCHAR
STARTCHAR char207
ENCODING 207
SWIDTH 436 0
DWIDTH 5 0
BBX 4 8 1 0
BITMAP
90
00
F0
60
60
60
60
F0
ENDCHAR
STARTCHAR char208
ENCODING 208
SWIDTH 436 0
DWIDTH 5 0
BBX 5 6 0 0
BITMAP
70
68
E8
68
68
70
ENDCHAR
STARTCHAR char209
ENCODING 209
SWIDTH 436 0
DWIDTH 5 0
BBX 4 8 1 0
BITMAP
50
A0
00
90
D0
F0
B0
90
ENDCHAR
STARTCHAR char210
ENCODING 210
SWIDTH 436 0
DWIDTH 5 0
BBX 4 8 1 0
BITMAP
40
20
60
D0
D0
D0
D0
60
ENDCHAR
STARTCHAR char211
ENCODING 211
SWIDTH 436 0
DWIDTH 5 0
BBX 4 8 1 0
BITMAP
20
40
60
D0
D0
D0
D0
60
ENDCHAR
STARTCHAR char212
ENCODING 212
SWIDTH 436 0
DWIDTH 5 0
BBX 4 8 1 0
BITMAP
F0
00
60
D0
D0
D0
D0
60
ENDCHAR
STARTCHAR char213
ENCODING 213
SWIDTH 436 0
DWIDTH 5 0
BBX 4 8 1 0
BITMAP
50
A0
60
D0
D0
D0
D0
60
ENDCHAR
STARTCHAR char214
ENCODING 214
SWIDTH 436 0
DWIDTH 5 0
BBX 4 8 1 0
BITMAP
90
00
60
D0
D0
D0
D0
60
ENDCHAR
STARTCHAR char215
ENCODING 215
SWIDTH 436 0
DWIDTH 5 0
BBX 5 5 0 0
BITMAP
D8
70
20
70
D8
ENDCHAR
STARTCHAR char216
ENCODING 216
SWIDTH 436 0
DWIDTH 5 0
BBX 4 6 1 0
BITMAP
70
B0
B0
D0
D0
E0
ENDCHAR
STARTCHAR char217
ENCODING 217
SWIDTH 436 0
DWIDTH 5 0
BBX 4 8 1 0
BITMAP
40
20
B0
B0
B0
B0
B0
50
ENDCHAR
STARTCHAR char218
ENCODING 218
SWIDTH 436 0
DWIDTH 5 0
BBX 4 8 1 0
BITMAP
20
40
B0
B0
B0
B0
B0
50
ENDCHAR
STARTCHAR char219
ENCODING 219
SWIDTH 436 0
DWIDTH 5 0
BBX 4 8 1 0
BITMAP
F0
00
B0
B0
B0
B0
B0
50
ENDCHAR
STARTCHAR char220
ENCODING 220
SWIDTH 436 0
DWIDTH 5 0
BBX 4 8 1 0
BITMAP
90
00
B0
B0
B0
B0
B0
50
ENDCHAR
STARTCHAR char221
ENCODING 221
SWIDTH 436 0
DWIDTH 5 0
BBX 4 8 1 0
BITMAP
20
40
D0
D0
60
60
60
60
ENDCHAR
STARTCHAR char222
ENCODING 222
SWIDTH 436 0
DWIDTH 5 0
BBX 4 6 1 0
BITMAP
C0
E0
D0
D0
E0
C0
ENDCHAR
STARTCHAR char223
ENCODING 223
SWIDTH 436 0
DWIDTH 5 0
BBX 4 6 1 0
BITMAP
60
B0
A0
B0
B0
A0
ENDCHAR
STARTCHAR char224
ENCODING 224
SWIDTH 436 0
DWIDTH 5 0
BBX 4 8 1 0
BITMAP
40
20
00
70
B0
B0
B0
50
ENDCHAR
STARTCHAR char225
ENCODING 225
SWIDTH 436 0
DWIDTH 5 0
BBX 4 8 1 0
BITMAP
20
40
00
70
B0
B0
B0
50
ENDCHAR
STARTCHAR char226
ENCODING 226
SWIDTH 436 0
DWIDTH 5 0
BBX 4 8 1 0
BITMAP
60
90
00
70
B0
B0
B0
50
ENDCHAR
STARTCHAR char227
ENCODING 227
SWIDTH 436 0
DWIDTH 5 0
BBX 4 8 1 0
BITMAP
50
A0
00
70
B0
B0
B0
50
ENDCHAR
STARTCHAR char228
ENCODING 228
SWIDTH 436 0
DWIDTH 5 0
BBX 4 7 1 0
BITMAP
90
00
70
B0
B0
B0
50
ENDCHAR
STARTCHAR char229
ENCODING 229
SWIDTH 436 0
DWIDTH 5 0
BBX 4 8 1 0
BITMAP
60
90
60
70
B0
B0
B0
50
ENDCHAR
STARTCHAR char230
ENCODING 230
SWIDTH 436 0
DWIDTH 5 0
BBX 5 5 0 0
BITMAP
50
B8
B8
B0
78
ENDCHAR
STARTCHAR char231
ENCODING 231
SWIDTH 436 0
DWIDTH 5 0
BBX 4 7 1 -2
BITMAP
70
C0
C0
C0
70
20
40
ENDCHAR
STARTCHAR char232
ENCODING 232
SWIDTH 436 0
DWIDTH 5 0
BBX 4 8 1 0
BITMAP
40
20
00
60
D0
F0
C0
70
ENDCHAR
STARTCHAR char233
ENCODING 233
SWIDTH 436 0
DWIDTH 5 0
BBX 4 8 1 0
BITMAP
20
40
00
60
D0
F0
C0
70
ENDCHAR
STARTCHAR char234
ENCODING 234
SWIDTH 436 0
DWIDTH 5 0
BBX 4 8 1 0
BITMAP
60
90
00
60
D0
F0
C0
70
ENDCHAR
STARTCHAR char235
ENCODING 235
SWIDTH 436 0
DWIDTH 5 0
BBX 4 7 1 0
BITMAP
90
00
60
D0
F0
C0
70
ENDCHAR
STARTCHAR char236
ENCODING 236
SWIDTH 436 0
DWIDTH 5 0
BBX 4 7 1 0
BITMAP
40
20
00
E0
60
60
70
ENDCHAR
STARTCHAR char237
ENCODING 237
SWIDTH 436 0
DWIDTH 5 0
BBX 4 7 1 0
BITMAP
20
40
00
E0
60
60
70
ENDCHAR
STARTCHAR char238
ENCODING 238
SWIDTH 436 0
DWIDTH 5 0
BBX 4 7 1 0
BITMAP
60
90
00
E0
60
60
70
ENDCHAR
STARTCHAR char239
ENCODING 239
SWIDTH 436 0
DWIDTH 5 0
BBX 4 6 1 0
BITMAP
90
00
E0
60
60
70
ENDCHAR
STARTCHAR char240
ENCODING 240
SWIDTH 436 0
DWIDTH 5 0
BBX 4 7 1 0
BITMAP
30
70
30
70
B0
B0
60
ENDCHAR
STARTCHAR char241
ENCODING 241
SWIDTH 436 0
DWIDTH 5 0
BBX 4 8 1 0
BITMAP
50
A0
00
A0
D0
D0
D0
D0
ENDCHAR
STARTCHAR char242
ENCODING 242
SWIDTH 436 0
DWIDTH 5 0
BBX 4 8 1 0
BITMAP
40
20
00
60
D0
D0
D0
60
ENDCHAR
STARTCHAR char243
ENCODING 243
SWIDTH 436 0
DWIDTH 5 0
BBX 4 8 1 0
BITMAP
20
40
00
60
D0
D0
D0
60
ENDCHAR
STARTCHAR char244
ENCODING 244
SWIDTH 436 0
DWIDTH 5 0
BBX 4 8 1 0
BITMAP
60
90
00
60
D0
D0
D0
60
ENDCHAR
STARTCHAR char245
ENCODING 245
SWIDTH 436 0
DWIDTH 5 0
BBX 4 8 1 0
BITMAP
50
A0
00
60
D0
D0
D0
60
ENDCHAR
STARTCHAR char246
ENCODING 246
SWIDTH 436 0
DWIDTH 5 0
BBX 4 7 1 0
BITMAP
90
00
60
D0
D0
D0
60
ENDCHAR
STARTCHAR char247
ENCODING 247
SWIDTH 436 0
DWIDTH 5 0
BBX 4 5 1 0
BITMAP
60
00
F0
00
60
ENDCHAR
STARTCHAR char248
ENCODING 248
SWIDTH 436 0
DWIDTH 5 0
BBX 5 5 0 0
BITMAP
38
58
78
68
70
ENDCHAR
STARTCHAR char249
ENCODING 249
SWIDTH 436 0
DWIDTH 5 0
BBX 4 8 1 0
BITMAP
40
20
00
B0
B0
B0
B0
50
ENDCHAR
STARTCHAR char250
ENCODING 250
SWIDTH 436 0
DWIDTH 5 0
BBX 4 8 1 0
BITMAP
20
40
00
B0
B0
B0
B0
50
ENDCHAR
STARTCHAR char251
ENCODING 251
SWIDTH 436 0
DWIDTH 5 0
BBX 4 8 1 0
BITMAP
60
90
00
B0
B0
B0
B0
50
ENDCHAR
STARTCHAR char252
ENCODING 252
SWIDTH 436 0
DWIDTH 5 0
BBX 4 7 1 0
BITMAP
90
00
B0
B0
B0
B0
50
ENDCHAR
STARTCHAR char253
ENCODING 253
SWIDTH 436 0
DWIDTH 5 0
BBX 4 10 1 -2
BITMAP
20
40
00
B0
B0
B0
B0
70
30
60
ENDCHAR
STARTCHAR char254
ENCODING 254
SWIDTH 436 0
DWIDTH 5 0
BBX 4 5 1 0
BITMAP
C0
E0
D0
E0
C0
ENDCHAR
STARTCHAR char255
ENCODING 255
SWIDTH 436 0
DWIDTH 5 0
BBX 4 9 1 -2
BITMAP
90
00
B0
B0
B0
B0
70
30
60
ENDCHAR
STARTCHAR char955
ENCODING 955
SWIDTH 436 0
DWIDTH 5 0
BBX 4 6 1 0
BITMAP
C0
C0
60
60
B0
B0
ENDCHAR
STARTCHAR char8216
ENCODING 8216
SWIDTH 436 0
DWIDTH 5 0
BBX 2 3 2 4
BITMAP
40
80
C0
ENDCHAR
STARTCHAR char8217
ENCODING 8217
SWIDTH 436 0
DWIDTH 5 0
BBX 2 3 2 4
BITMAP
C0
40
80
ENDCHAR
STARTCHAR char8220
ENCODING 8220
SWIDTH 436 0
DWIDTH 5 0
BBX 5 3 0 4
BITMAP
48
90
D8
ENDCHAR
STARTCHAR char8221
ENCODING 8221
SWIDTH 436 0
DWIDTH 5 0
BBX 5 3 0 4
BITMAP
D8
48
90
ENDCHAR
STARTCHAR char8592
ENCODING 8592
SWIDTH 436 0
DWIDTH 5 0
BBX 5 5 0 1
BITMAP
20
60
F8
60
20
ENDCHAR
STARTCHAR char8593
ENCODING 8593
SWIDTH 436 0
DWIDTH 5 0
BBX 5 8 0 0
BITMAP
20
70
F8
20
20
20
20
20
ENDCHAR
STARTCHAR char8594
ENCODING 8594
SWIDTH 436 0
DWIDTH 5 0
BBX 5 5 0 1
BITMAP
20
30
F8
30
20
ENDCHAR
STARTCHAR char8595
ENCODING 8595
SWIDTH 436 0
DWIDTH 5 0
BBX 5 8 0 0
BITMAP
20
20
20
20
20
F8
70
20
ENDCHAR
STARTCHAR char8656
ENCODING 8656
SWIDTH 436 0
DWIDTH 5 0
BBX 5 5 0 1
BITMAP
20
78
C0
78
20
ENDCHAR
STARTCHAR char8657
ENCODING 8657
SWIDTH 436 0
DWIDTH 5 0
BBX 5 5 0 1
BITMAP
20
F0
18
F0
20
ENDCHAR
STARTCHAR char8658
ENCODING 8658
SWIDTH 436 0
DWIDTH 5 0
BBX 3 5 0 1
BITMAP
20
40
80
40
20
ENDCHAR
STARTCHAR char8659
ENCODING 8659
SWIDTH 436 0
DWIDTH 5 0
BBX 3 5 2 1
BITMAP
80
40
20
40
80
ENDCHAR
STARTCHAR char10521
ENCODING 10521
SWIDTH 436 0
DWIDTH 5 0
BBX 5 5 0 1
BITMAP
08
10
E0
10
08
ENDCHAR
STARTCHAR char10522
ENCODING 10522
SWIDTH 436 0
DWIDTH 5 0
BBX 5 5 0 1
BITMAP
80
40
38
40
80
ENDCHAR
STARTCHAR char57504
ENCODING 57504
SWIDTH 436 0
DWIDTH 5 0
BBX 5 6 0 0
BITMAP
90
B8
90
E0
80
80
ENDCHAR
STARTCHAR char57505
ENCODING 57505
SWIDTH 436 0
DWIDTH 5 0
BBX 5 6 0 0
BITMAP
20
50
50
F8
D8
70
ENDCHAR
STARTCHAR char57506
ENCODING 57506
SWIDTH 436 0
DWIDTH 5 0
BBX 4 9 1 -1
BITMAP
80
80
80
F0
00
90
D0
B0
90
ENDCHAR
STARTCHAR char57520
ENCODING 57520
SWIDTH 436 0
DWIDTH 5 0
BBX 5 10 0 -2
BITMAP
80
C0
E0
F0
F8
F8
F0
E0
C0
80
ENDCHAR
STARTCHAR char57521
ENCODING 57521
SWIDTH 436 0
DWIDTH 5 0
BBX 5 10 0 -2
BITMAP
80
40
20
10
08
08
10
20
40
80
ENDCHAR
STARTCHAR char57522
ENCODING 57522
SWIDTH 436 0
DWIDTH 5 0
BBX 5 10 0 -2
BITMAP
08
18
38
78
F8
F8
78
38
18
08
ENDCHAR
STARTCHAR char57523
ENCODING 57523
SWIDTH 436 0
DWIDTH 5 0
BBX 5 10 0 -2
BITMAP
08
10
20
40
80
80
40
20
10
08
ENDCHAR
STARTCHAR char65533
ENCODING 65533
SWIDTH 436 0
DWIDTH 5 0
BBX 4 6 1 0
BITMAP
F0
90
90
90
90
F0
ENDCHAR
ENDFONT
